PathFileType	4	(X/Y/Z)	Subject_003_static.trc	
DataRate	CameraRate	NumFrames	NumMarkers	Units	OrigDataRate	OrigDataStartFrame	OrigNumFrames	
100.00	100.00	16	24	mm	100.00	18	140	
Frame#	Time	LASI			RASI			LPSI			RPSI			LTHI			LKNE			LMKNE			LTIB			LANK			LHEE			LTOE			RTHI			RKNE			RMKNE			RTIB			RANK			RHEE			RTOE			LFEO			LFEP			LTIO			RFEO			RFEP			RTIO			
		X1	Y1	Z1	X2	Y2	Z2	X3	Y3	Z3	X4	Y4	Z4	X5	Y5	Z5	X6	Y6	Z6	X7	Y7	Z7	X8	Y8	Z8	X9	Y9	Z9	X10	Y10	Z10	X11	Y11	Z11	X12	Y12	Z12	X13	Y13	Z13	X14	Y14	Z14	X15	Y15	Z15	X16	Y16	Z16	X17	Y17	Z17	X18	Y18	Z18	X19	Y19	Z19	X20	Y20	Z20	X21	Y21	Z21	X22	Y22	Z22	X23	Y23	Z23	X24	Y24	Z24	

18	0.170	-831.68311	595.89435	17.55591	-773.22778	585.15375	186.32135	-920.56140	635.87476	111.50781	-897.71820	629.43579	167.29208	-905.17120	394.35886	-24.35139	-887.68768	305.28891	31.88819	-868.70679	301.63107	128.39932	-880.89374	147.86365	-16.31348	-881.17993	48.73854	39.69168	-931.04639	36.74844	64.85456	-787.23346	34.16535	75.59970	-804.70819	392.50342	276.63147	-826.48914	297.15982	243.06316	-871.02216	278.52600	151.45827	-883.59088	177.50017	340.19440	-966.79291	118.84496	348.87796	-1006.87708	158.61989	336.89401	-984.48401	28.39937	332.64575	-872.83173	309.14212	75.25237	-875.31348	553.71497	54.37077	-879.86322	48.26296	71.66104	-844.11334	294.54425	200.11206	-830.94476	545.69366	179.41443	-988.98016	120.27737	325.17300 
19	0.180	-831.78815	595.90692	17.51191	-773.34613	585.10742	186.28040	-920.62866	635.84814	111.50811	-897.86615	629.42786	167.30354	-905.21924	394.35052	-24.36581	-887.90967	305.20129	31.75899	-868.77368	301.64297	128.40041	-880.90009	147.89287	-16.33475	-881.19629	48.75498	39.70237	-931.03552	36.74540	64.87894	-787.21429	34.21562	75.62141	-804.77710	392.51523	276.59497	-826.51208	297.14316	242.96213	-871.08191	278.52313	151.34375	-883.58044	177.54776	340.12888	-966.68085	118.85106	348.85977	-1006.83057	158.61922	336.88907	-984.60785	28.37577	332.66513	-873.11407	309.03534	75.14549	-875.42487	553.71985	54.31107	-879.92889	48.29618	71.67397	-844.11548	294.52585	200.00262	-831.06647	545.65491	179.35559	-988.86310	120.24763	325.14795 
20	0.190	-831.87927	595.91931	17.48787	-773.50714	585.12683	186.30862	-920.75775	635.84503	111.49091	-898.02612	629.40961	167.26323	-905.41199	394.29001	-24.37096	-887.97687	305.19940	31.73737	-868.87183	301.66986	128.37274	-880.93726	147.89725	-16.34443	-881.20483	48.77349	39.68556	-931.06061	36.74671	64.84563	-787.23047	34.25151	75.60408	-804.84143	392.51065	276.54379	-826.50684	297.13321	242.88794	-871.13428	278.49258	151.22205	-883.24347	177.72447	339.80930	-966.78503	118.86676	348.82086	-1006.85034	158.66438	336.80719	-984.63892	28.40592	332.67905	-873.10870	309.03577	75.09885	-875.52002	553.72083	54.27736	-879.92151	48.31784	71.65657	-844.10321	294.51489	199.92558	-831.21973	545.66260	179.34286	-989.01288	120.34548	325.15680 
21	0.200	-831.98376	595.94775	17.41584	-773.64581	585.13666	186.26509	-920.89117	635.88892	111.45989	-898.09479	629.40991	167.23824	-905.51227	394.15472	-24.29333	-888.02185	305.21387	31.70619	-868.92334	301.72943	128.38342	-880.91333	147.92476	-16.37005	-881.22858	48.82475	39.66258	-931.02423	36.77195	64.79694	-787.22418	34.29564	75.59928	-804.88141	392.46759	276.45813	-826.52026	297.11212	242.79947	-871.20325	278.51154	151.09776	-883.26489	177.76906	339.74866	-966.66516	118.92521	348.76773	-1006.79059	158.69408	336.75775	-984.60309	28.50007	332.59082	-873.11237	309.06146	75.05251	-875.63458	553.75092	54.20047	-879.96362	48.37230	71.63438	-844.13409	294.49017	199.84451	-831.36377	545.67944	179.27554	-988.88763	120.37201	325.09665 
22	0.210	-832.09283	595.95923	17.34881	-773.79657	585.09979	186.22264	-921.05231	635.89044	111.41917	-898.25446	629.39178	167.17940	-905.57648	394.09689	-24.28728	-888.07306	305.22430	31.65528	-868.92627	301.77246	128.34160	-880.96899	147.93658	-16.42922	-881.22845	48.82782	39.62092	-931.08472	36.77979	64.74979	-787.26263	34.33710	75.55219	-804.87091	392.41898	276.35434	-826.52313	297.09543	242.63695	-871.22821	278.48004	150.93504	-883.25287	177.78387	339.68250	-966.69507	119.00847	348.59708	-1006.82001	158.71614	336.66583	-984.63196	28.48484	332.58716	-873.15771	309.08182	74.99871	-875.75336	553.75409	54.11636	-879.94598	48.37666	71.59203	-844.17548	294.48111	199.69731	-831.51642	545.64734	179.20119	-988.91699	120.45702	324.92554 
23	0.220	-832.17395	595.90466	17.31516	-773.93933	585.04132	186.19275	-921.11719	635.82373	111.37149	-898.40942	629.36090	167.13315	-905.70746	394.22684	-24.28094	-888.06085	305.17963	31.63482	-868.92065	301.77142	128.27469	-880.98645	147.89769	-16.37593	-881.24011	48.80085	39.62611	-931.05707	36.76710	64.71420	-787.24225	34.31930	75.53585	-804.89667	392.38126	276.29938	-826.49347	297.04544	242.54712	-871.16986	278.32932	150.76968	-883.23798	177.77296	339.65015	-966.61584	118.98138	348.57516	-1006.76294	158.70285	336.62146	-984.49176	28.58155	332.53360	-873.07513	309.04886	74.95289	-875.85321	553.70435	54.06093	-879.93732	48.35494	71.59647	-844.14587	294.42743	199.60776	-831.65790	545.59393	179.16023	-988.83142	120.40388	324.89609 
24	0.230	-832.29926	595.87402	17.25571	-774.10730	585.03113	186.21310	-921.31592	635.79663	111.30695	-898.54608	629.32477	167.09561	-905.75983	394.34555	-24.45561	-888.10809	305.19919	31.61874	-868.94397	301.72061	128.20375	-881.01349	147.87730	-16.39268	-881.28223	48.80874	39.56675	-931.10870	36.76344	64.69321	-787.26660	34.29194	75.51061	-804.89728	392.29861	276.21335	-826.44141	296.98520	242.35599	-871.29736	278.41934	150.77818	-883.06799	177.79221	339.42758	-966.62195	118.97381	348.49002	-1006.72955	158.70171	336.57333	-984.63788	28.38506	332.62009	-873.16602	309.07959	74.95090	-875.97644	553.66882	54.01720	-879.99506	48.35648	71.53765	-844.10229	294.38086	199.41931	-831.82721	545.57635	179.13397	-988.86426	120.43080	324.83823 
25	0.240	-832.38916	595.82208	17.23494	-774.19714	584.98358	186.20654	-921.42822	635.72498	111.28492	-898.62646	629.29047	167.11081	-905.76740	394.30127	-24.49943	-888.13684	305.15979	31.60820	-868.97351	301.67377	128.22006	-880.97028	147.84053	-16.39089	-881.23987	48.77485	39.57734	-931.05054	36.70000	64.71922	-787.23572	34.24393	75.53842	-804.99341	392.24860	276.20773	-826.43085	296.90994	242.29860	-871.37360	278.31412	150.76416	-883.15503	177.68341	339.53912	-966.57520	118.93032	348.51328	-1006.69049	158.65421	336.59503	-984.62915	28.31677	332.64774	-873.22723	309.04532	74.95108	-876.06293	553.61456	54.00197	-879.97107	48.32484	71.54901	-844.03705	294.30185	199.33966	-831.91693	545.52606	179.12006	-988.79950	120.34704	324.84210 
26	0.250	-832.51508	595.77856	17.23575	-774.27814	584.93481	186.18025	-921.60425	635.70087	111.25138	-898.73828	629.23840	167.09683	-905.82092	394.31326	-24.53068	-888.16132	305.13278	31.60424	-868.99396	301.60904	128.16869	-881.04138	147.80629	-16.37224	-881.25293	48.72551	39.59781	-931.10016	36.66756	64.74876	-787.26611	34.23358	75.53414	-805.00385	392.18362	276.08698	-826.42181	296.84647	242.19041	-871.43573	278.25156	150.73735	-883.14801	177.62447	339.48413	-966.47980	118.91874	348.49292	-1006.68732	158.66914	336.57852	-984.48157	28.42052	332.58353	-873.26099	309.02255	74.94994	-876.17804	553.56720	54.00788	-879.96075	48.27771	71.56858	-844.04913	294.25122	199.23938	-831.99609	545.47437	179.11308	-988.71436	120.32625	324.83084 
27	0.260	-832.65247	595.77960	17.26454	-774.33844	584.97180	186.18459	-921.69788	635.67297	111.28504	-898.87494	629.19012	167.11670	-905.83197	394.30118	-24.51313	-888.17468	305.11368	31.66386	-869.08087	301.60248	128.24640	-881.02563	147.74217	-16.32257	-881.23846	48.73550	39.61449	-931.04956	36.61260	64.83611	-787.23615	34.18887	75.60284	-805.11243	392.13849	276.12372	-826.45349	296.86908	242.23831	-871.44525	278.18704	150.76036	-882.95428	177.65639	339.37366	-966.49396	118.90769	348.56293	-1006.66077	158.66872	336.63565	-984.46600	28.42992	332.58704	-873.30298	309.01117	75.01870	-876.27655	553.54492	54.05593	-879.95740	48.28184	71.58562	-844.03833	294.26645	199.27029	-832.03760	545.47931	179.14265	-988.76758	120.37452	324.94122 
28	0.270	-832.80078	595.78229	17.25263	-774.48621	584.94458	186.20287	-921.83301	635.67194	111.25992	-899.07703	629.21338	167.08559	-905.86823	394.28937	-24.56153	-888.24457	305.13986	31.60601	-869.25641	301.68777	128.22838	-881.08344	147.74309	-16.35868	-881.27362	48.75410	39.58302	-931.08441	36.61769	64.79396	-787.28381	34.20544	75.60377	-805.31018	392.12140	276.17368	-826.49219	296.84824	242.16205	-871.48932	278.17746	150.70680	-883.17584	177.67259	339.49628	-966.49579	118.91966	348.51297	-1006.67053	158.68044	336.59073	-984.48840	28.47246	332.58197	-873.41455	309.03384	74.97544	-876.42920	553.55090	54.05212	-879.99554	48.30234	71.55431	-843.97754	294.24191	199.15366	-832.19720	545.46423	179.13991	-988.71313	120.29678	324.83295 
29	0.280	-832.88416	595.75848	17.26574	-774.58630	584.96167	186.20430	-921.96753	635.60590	111.30877	-899.27026	629.18378	167.09795	-905.88885	394.28595	-24.54026	-888.38910	305.03625	31.55639	-869.30872	301.65997	128.29015	-881.05280	147.71968	-16.32229	-881.23438	48.65890	39.67952	-931.05994	36.59281	64.83572	-787.24457	34.15986	75.64896	-805.20514	392.08551	276.06021	-826.46570	296.83221	242.16396	-871.45313	278.11575	150.74643	-883.05371	177.63939	339.47025	-966.47687	118.90296	348.57919	-1006.61963	158.66234	336.60675	-984.47162	28.49001	332.55530	-873.60376	308.91641	74.94229	-876.49420	553.50256	54.05310	-879.99084	48.22494	71.65240	-844.05652	294.22797	199.19852	-832.26984	545.44604	179.14561	-988.73035	120.32106	324.93555 
30	0.290	-832.98767	595.75201	17.27181	-774.76746	584.98132	186.16393	-922.14594	635.61908	111.26085	-899.43304	629.18402	167.07466	-905.86920	394.12476	-24.72150	-888.31799	305.09744	31.62186	-869.35876	301.66891	128.22084	-881.14551	147.68372	-16.36666	-881.22577	48.68335	39.66914	-931.06403	36.61025	64.75145	-787.26166	34.19951	75.63899	-805.27905	392.07880	276.00137	-826.46240	296.83612	242.04083	-871.42578	278.09033	150.69751	-882.94763	177.67050	339.36151	-966.49164	118.95156	348.56290	-1006.63470	158.72404	336.55701	-984.47418	28.46866	332.58353	-873.59094	309.00940	75.02473	-876.61755	553.49805	54.01566	-879.93738	48.23703	71.64008	-844.03668	294.23618	199.06836	-832.43365	545.45776	179.12354	-988.76935	120.39674	324.94373 
31	0.300	-833.05896	595.72961	17.31815	-774.91205	584.97235	186.11755	-922.25446	635.57751	111.25529	-899.59302	629.17462	167.04901	-905.96387	394.23520	-24.56286	-888.39044	305.09180	31.64320	-869.33588	301.64310	128.23341	-881.02704	147.71300	-16.41629	-881.29901	48.73671	39.54439	-931.03925	36.60825	64.75880	-787.20337	34.19127	75.62369	-805.31042	392.08871	275.96786	-826.41632	296.83133	241.99503	-871.37036	278.08728	150.66920	-882.88245	177.69179	339.32855	-966.47388	118.96736	348.58716	-1006.60120	158.73730	336.56226	-984.47314	28.43189	332.59421	-873.62256	309.01129	75.03152	-876.70966	553.47284	53.99887	-880.09161	48.27592	71.51829	-843.97992	294.22552	199.01851	-832.55310	545.43762	179.11673	-988.75848	120.41845	324.97482 
32	0.310	-833.19739	595.74622	17.26417	-775.14618	585.00574	186.04510	-922.41254	635.56879	111.18456	-899.69885	629.17218	167.04617	-906.02936	394.25781	-24.60005	-888.45807	305.08774	31.59182	-869.46777	301.76001	128.15977	-881.04608	147.75314	-16.45638	-881.25952	48.72729	39.58312	-931.02930	36.61924	64.67699	-787.22491	34.23974	75.56327	-805.37982	392.12024	275.85214	-826.43445	296.86627	241.88620	-871.44342	278.08273	150.63779	-882.81561	177.73697	339.17303	-966.43036	119.00114	348.48596	-1006.58215	158.78067	336.49567	-984.59045	28.44128	332.53323	-873.70642	309.02057	74.98444	-876.86987	553.48889	53.90286	-880.04663	48.27750	71.55696	-844.01825	294.25375	198.91835	-832.77234	545.46411	179.04213	-988.72931	120.46416	324.88791 
33	0.320	-833.32983	595.75323	17.25652	-775.29749	584.98950	185.96284	-922.60822	635.59119	111.23341	-899.81396	629.13580	167.06927	-906.05658	394.26721	-24.58389	-888.53552	305.08310	31.64647	-869.54156	301.77982	128.15636	-881.16071	147.71017	-16.35825	-881.22693	48.70694	39.60141	-931.06494	36.62867	64.76388	-787.25977	34.26768	75.60412	-805.47021	392.10538	275.82864	-826.44830	296.84348	241.89589	-871.42279	278.03134	150.61073	-882.89740	177.77625	339.27209	-966.34235	118.98730	348.47910	-1006.57587	158.79445	336.53580	-984.55896	28.50050	332.54535	-873.82874	309.03876	75.05225	-877.01154	553.48962	53.85340	-879.97260	48.25091	71.57356	-844.01544	294.21057	198.92249	-832.90991	545.44421	178.98994	-988.60333	120.38066	324.84109 
